<svg width="22" height="29" viewBox="0 0 22 29" fill="none" xmlns="http://www.w3.org/2000/svg">
<path d="M21.76 27.36C21.76 27.8133 20.4133 28.04 17.72 28.04C15.0267 28.04 13.68 27.8133 13.68 27.36V18.16H8.08V27.36C8.08 27.8133 6.73333 28.04 4.04 28.04C1.34667 28.04 2.98023e-08 27.8133 2.98023e-08 27.36V0.840008C2.98023e-08 0.280008 1.34667 7.15256e-06 4.04 7.15256e-06C6.73333 7.15256e-06 8.08 0.280008 8.08 0.840008V10.24H13.68V0.920007C13.68 0.546674 14.3467 0.280008 15.68 0.120008C16.3733 0.0666738 17.0533 0.0400066 17.72 0.0400066L19.76 0.120008C21.0933 0.280008 21.76 0.546674 21.76 0.920007V27.36Z" fill="#8358D4"/>
</svg>
